<?xml version="1.0" encoding="utf-8"?>
<!-- Generator: Adobe Illustrator 24.0.1, SVG Export Plug-In . SVG Version: 6.00 Build 0)  -->
<svg version="1.1" id="Layer_1" xmlns="http://www.w3.org/2000/svg" xmlns:xlink="http://www.w3.org/1999/xlink" x="0px" y="0px"
	 viewBox="0 0 432.3 64" style="enable-background:new 0 0 432.3 64;" xml:space="preserve">
<style type="text/css">
	.st0{fill:#FFFFFF;}
</style>
<title>logo</title>
<g>
	<g id="圖層_1">
		<path class="st0" d="M25.5,14.9h-17v11.7h16.4v6.9H8.5v23.3H1.2V8h24.3V14.9z"/>
		<path class="st0" d="M45.9,8v29.4c-0.2,3.2,0.5,6.4,2.1,9.2c3.7,4.8,10.7,5.6,15.4,1.8c0.7-0.5,1.3-1.2,1.8-1.8
			c1.4-1.9,2.1-4.9,2.1-9.2V8h7.4v31.4c0.2,4.7-1.6,9.3-4.8,12.7c-7.2,7.3-19,7.4-26.3,0.2c-0.1-0.1-0.2-0.1-0.2-0.2
			c-3.2-3.4-5-8-4.8-12.7V8H45.9z"/>
		<path class="st0" d="M90.9,56.8V4.7l35.6,37.2V8h7.4v51.7L98.3,22.6v34.2C98.3,56.8,90.9,56.8,90.9,56.8z"/>
		<path class="st0" d="M157.4,37v19.8H150V8h8.3c3.1-0.1,6.2,0.2,9.2,0.8c2.1,0.6,4,1.7,5.6,3.2c2.8,2.7,4.3,6.5,4.2,10.4
			c0.2,4-1.5,7.9-4.5,10.6c-3.4,2.8-7.7,4.2-12.1,3.9L157.4,37z M157.4,30.2h2.7c6.8,0,10.1-2.6,10.1-7.8s-3.5-7.5-10.4-7.5h-2.4
			L157.4,30.2z"/>
		<path class="st0" d="M187.1,32.1c-0.1-6.7,2.7-13.1,7.6-17.7c4.8-4.8,11.3-7.5,18.1-7.4c14,0.1,25.3,11.4,25.4,25.4
			c0.1,6.8-2.6,13.3-7.5,17.9c-9.7,9.5-25.1,9.9-35.2,0.8C189.8,46.4,186.8,39.4,187.1,32.1z M194.5,32.1c-0.2,5,1.8,9.8,5.4,13.3
			c7.1,7,18.4,6.9,25.4-0.1c7-7.3,7-18.8,0-26.2c-3.3-3.5-8-5.5-12.8-5.4c-9.9-0.1-18,7.8-18.1,17.7c0,0.2,0,0.3,0,0.5L194.5,32.1z"
			/>
		<path class="st0" d="M251.9,56.8V8h10.2c3.9-0.1,7.9,0.4,11.6,1.5c3.1,1,5.9,2.6,8.3,4.8c5.1,4.6,7.8,11.2,7.5,18.1
			c0.2,6.9-2.6,13.6-7.8,18.2c-2.4,2.2-5.2,3.8-8.3,4.8c-3.7,1-7.6,1.5-11.5,1.4C261.9,56.8,251.9,56.8,251.9,56.8z M259.2,49.9h3.3
			c2.8,0.1,5.6-0.3,8.2-1c2.2-0.8,4.2-2,5.9-3.6c3.6-3.3,5.6-8,5.4-12.9c0.2-4.9-1.8-9.7-5.4-13c-3.2-3-8-4.5-14.2-4.5h-3.3
			L259.2,49.9z"/>
		<path class="st0" d="M310.7,8v48.8h-7.3V8H310.7z"/>
		<path class="st0" d="M334.3,8v29.4c-0.2,3.2,0.5,6.4,2,9.2c3.8,4.8,10.7,5.6,15.4,1.8c0.7-0.5,1.3-1.2,1.8-1.8
			c1.4-1.8,2.1-4.9,2.1-9.2V8h7.3v31.4c0.2,4.7-1.6,9.3-4.8,12.7c-7.2,7.3-19,7.4-26.3,0.2c-0.1-0.1-0.2-0.1-0.2-0.2
			c-3.2-3.4-5-8-4.8-12.7V8H334.3z"/>
		<path class="st0" d="M377.6,56.8l10.3-52.5l16.7,37.9l17.3-37.9l9.2,52.5h-7.5l-4.7-29.5L404.5,59l-14-31.7l-5.2,29.5H377.6z"/>
	</g>
</g>
</svg>
