<?xml version="1.0" standalone="no"?>
<!DOCTYPE svg PUBLIC "-//W3C//DTD SVG 20010904//EN"
 "http://www.w3.org/TR/2001/REC-SVG-20010904/DTD/svg10.dtd">
<svg version="1.0" xmlns="http://www.w3.org/2000/svg"
 width="300.000000pt" height="300.000000pt" viewBox="0 0 300.000000 300.000000"
 preserveAspectRatio="xMidYMid meet">

<g transform="translate(0.000000,300.000000) scale(0.100000,-0.100000)"
fill="#000000" stroke="none">
<path d="M1418 2936 c-174 -149 -320 -380 -390 -621 -30 -103 -58 -288 -58
-383 0 -60 -5 -59 90 -22 40 15 45 21 48 51 28 345 131 591 335 805 l70 75 55
-53 c30 -29 81 -89 114 -133 59 -78 61 -80 131 -100 40 -12 82 -25 94 -29 20
-6 19 -1 -16 61 -46 85 -83 139 -155 225 -73 88 -190 188 -220 188 -14 0 -53
-25 -98 -64z"/>
<path d="M1405 2524 c-71 -11 -74 -13 -110 -88 -19 -40 -35 -75 -35 -78 0 -2
39 4 88 14 66 14 114 18 197 14 394 -16 718 -271 831 -651 15 -53 27 -69 92
-130 l75 -70 -7 78 c-6 80 -22 150 -57 245 -116 320 -413 575 -753 648 -71 15
-265 26 -321 18z"/>
<path d="M885 2311 c-194 -155 -323 -361 -376 -600 -23 -105 -25 -296 -5 -403
31 -160 104 -326 193 -436 31 -38 39 -42 76 -41 23 0 61 4 85 7 l43 7 -56 65
c-148 170 -218 362 -217 595 1 229 69 404 230 592 41 49 72 94 72 107 0 12 8
52 19 89 12 45 15 67 7 67 -6 -1 -38 -22 -71 -49z"/>
<path d="M1893 2201 c76 -377 -18 -740 -268 -1035 l-56 -65 52 -41 52 -41 39
38 c57 55 154 196 203 293 105 210 157 466 140 687 l-7 88 -42 31 c-22 16 -59
41 -80 54 l-39 24 6 -33z"/>
<path d="M1366 1909 c-152 -17 -299 -61 -431 -126 -86 -43 -222 -132 -229
-149 -3 -7 -8 -52 -12 -101 l-7 -87 39 32 c236 196 513 302 785 302 69 0 246
-22 296 -36 19 -5 23 -1 27 28 4 18 7 48 9 67 2 32 -1 35 -39 47 -98 29 -299
39 -438 23z"/>
<path d="M2106 1716 c-3 -30 -8 -61 -11 -68 -4 -9 25 -35 82 -73 109 -74 241
-205 311 -308 81 -118 161 -300 178 -404 l6 -40 -78 -21 c-44 -12 -120 -26
-169 -33 l-90 -11 -67 -63 c-36 -35 -64 -66 -61 -69 9 -9 118 -7 218 4 171 19
334 66 373 107 29 31 28 63 -4 187 -73 275 -216 500 -439 691 -48 42 -221 155
-235 155 -4 0 -10 -24 -14 -54z"/>
<path d="M1095 1627 c-80 -35 -78 -28 -41 -132 112 -313 367 -596 664 -738 81
-39 83 -39 181 11 29 15 53 32 53 36 -1 5 -29 19 -64 31 -327 115 -605 404
-718 748 -12 37 -22 67 -23 66 -1 0 -25 -10 -52 -22z"/>
<path d="M387 1284 c-50 -83 -100 -194 -131 -292 -26 -83 -57 -242 -50 -254 7
-11 112 -48 209 -73 299 -79 613 -46 900 94 151 74 147 68 82 124 l-54 46 -75
-39 c-221 -116 -515 -157 -758 -105 -122 26 -150 36 -150 56 0 27 49 176 81
247 l28 63 -19 77 c-10 42 -20 86 -22 97 -3 15 -12 5 -41 -41z"/>
<path d="M2371 1244 c-54 -213 -242 -438 -458 -548 -183 -92 -443 -118 -632
-62 -40 12 -50 10 -128 -16 -46 -15 -91 -28 -100 -28 -29 0 -2 -17 77 -50 237
-98 532 -98 769 -1 238 97 448 297 551 524 16 37 30 73 30 80 0 12 -66 115
-90 140 -4 5 -13 -13 -19 -39z"/>
</g>
</svg>
